<?xml version="1.0" standalone="no"?>
<!DOCTYPE svg PUBLIC "-//W3C//DTD SVG 20010904//EN"
 "http://www.w3.org/TR/2001/REC-SVG-20010904/DTD/svg10.dtd">
<svg version="1.0" xmlns="http://www.w3.org/2000/svg"
 width="700.000000pt" height="700.000000pt" viewBox="0 0 700.000000 700.000000"
 preserveAspectRatio="xMidYMid meet">
<metadata>
Created by potrace 1.11, written by Peter Selinger 2001-2013
</metadata>
<g transform="translate(0.000000,700.000000) scale(0.100000,-0.100000)"
fill="#000000" stroke="none">
<path d="M330 6829 c-26 -3 -35 -7 -20 -8 51 -5 134 -21 245 -48 33 -8 70 -17
82 -19 39 -7 270 -82 370 -119 281 -105 545 -243 813 -424 100 -68 286 -206
310 -231 3 -3 39 -34 80 -69 113 -96 380 -369 490 -501 168 -202 323 -417 451
-626 23 -38 49 -80 57 -94 14 -23 13 -22 -17 5 -18 17 -76 73 -130 125 -103
100 -285 270 -361 336 -25 21 -50 44 -56 49 -172 154 -495 412 -659 527 -131
91 -264 178 -273 178 -6 0 -12 3 -14 8 -7 16 -358 220 -358 207 0 -2 26 -23
58 -47 335 -245 791 -728 1087 -1148 35 -50 28 -45 -71 51 -133 130 -158 154
-264 249 -46 41 -93 84 -104 95 -56 54 -346 292 -461 379 -71 53 -137 103
-146 110 -15 12 -193 130 -299 198 -110 70 -304 175 -500 268 -89 43 -362 150
-381 150 -5 0 -9 -107 -9 -238 l0 -238 143 -47 c78 -26 156 -54 172 -62 17 -8
71 -32 120 -53 246 -107 534 -287 793 -496 252 -203 505 -455 712 -711 36 -44
67 -82 70 -85 6 -5 124 -164 165 -222 31 -44 155 -248 155 -255 0 -4 6 -14 14
-22 7 -9 27 -41 43 -71 66 -122 155 -270 162 -266 23 13 483 278 511 295 19
11 51 29 71 40 19 11 145 83 280 162 134 78 262 152 284 164 37 20 436 250
650 375 50 29 108 62 130 75 44 24 218 126 223 130 5 4 -411 716 -482 824 -68
103 -211 298 -247 336 -11 11 -36 40 -57 65 -242 290 -604 561 -899 674 -69
26 -72 26 -352 27 -155 1 -284 0 -286 -3 -3 -2 12 -10 33 -17 58 -20 263 -113
302 -136 19 -12 43 -25 54 -28 38 -15 264 -160 331 -214 6 -5 32 -26 60 -48
334 -267 651 -681 866 -1130 68 -142 151 -336 146 -341 -2 -2 -26 29 -55 69
-28 40 -62 84 -74 99 -24 28 -28 32 -97 118 -25 30 -49 60 -55 65 -6 6 -38 42
-71 80 -76 90 -336 349 -440 440 -44 39 -82 72 -85 75 -3 3 -54 45 -113 92
-516 411 -1065 693 -1659 853 l-97 26 -648 2 c-356 1 -668 -1 -693 -4z m2195
-620 c94 -44 210 -111 335 -195 417 -278 745 -663 927 -1089 19 -45 49 -135
89 -265 l14 -45 -43 46 c-23 25 -80 88 -127 139 -47 51 -96 105 -110 120 -62
68 -191 210 -237 261 -28 32 -59 66 -69 76 -21 21 -180 195 -204 223 -16 18
-168 185 -210 230 -14 15 -61 67 -105 115 -44 49 -89 98 -100 109 -11 12 -58
64 -105 116 -47 52 -109 119 -137 150 -29 30 -53 58 -53 62 0 7 42 -9 135 -53z"/>
<path d="M4635 4429 c-66 -39 -138 -81 -160 -93 -22 -13 -200 -115 -395 -228
-430 -249 -379 -220 -612 -353 -105 -60 -200 -117 -211 -126 -20 -15 -16 -22
135 -285 86 -148 165 -285 176 -304 11 -19 76 -132 144 -250 68 -118 245 -424
393 -680 147 -256 274 -471 281 -479 13 -14 42 2 499 266 66 39 197 114 290
168 94 54 187 109 207 122 21 12 40 23 42 23 2 0 49 26 103 58 54 32 105 61
113 65 8 4 29 16 45 26 73 45 209 121 216 121 25 0 12 34 -62 161 -44 78 -89
156 -99 173 -10 17 -118 204 -240 416 -302 522 -411 710 -585 1013 -81 141
-151 257 -154 257 -3 -1 -60 -33 -126 -71z"/>
<path d="M5600 3950 c-85 -48 -156 -92 -157 -97 -2 -5 49 -98 112 -207 63
-110 115 -202 115 -205 1 -3 9 -17 20 -29 l20 -24 157 92 c87 51 159 93 161
95 2 2 -47 90 -109 197 -62 106 -121 210 -132 231 -10 20 -22 37 -26 37 -3 0
-76 -41 -161 -90z"/>
<path d="M3206 2569 c-132 -76 -241 -139 -243 -139 -2 0 -16 -8 -31 -19 -15
-10 -256 -150 -537 -311 -280 -161 -535 -308 -565 -325 -137 -80 -241 -141
-457 -265 l-232 -134 24 -40 c13 -23 71 -124 130 -226 58 -102 110 -189 115
-193 4 -5 48 15 96 44 49 28 109 64 134 79 25 14 52 30 60 34 8 4 24 12 35 19
11 7 47 27 80 46 33 19 93 54 132 78 40 23 77 43 83 43 5 0 10 5 10 10 0 6 4
10 9 10 5 0 177 97 383 216 205 119 389 225 408 236 19 11 50 28 68 39 18 11
124 72 235 136 111 64 256 147 322 186 190 110 219 127 243 139 12 6 21 15 20
18 -16 40 -266 460 -273 459 -5 0 -118 -63 -249 -140z"/>
<path d="M6170 2345 c-107 -62 -293 -169 -414 -239 -120 -69 -220 -126 -222
-126 -3 0 -21 -11 -42 -24 -20 -14 -183 -109 -362 -212 -395 -227 -365 -209
-478 -275 -51 -30 -117 -67 -146 -84 -28 -16 -107 -61 -174 -100 -67 -38 -122
-73 -122 -76 0 -4 38 -71 83 -150 46 -79 95 -164 109 -189 34 -60 100 -174
105 -179 4 -5 12 -1 158 84 206 120 603 349 645 373 25 13 70 39 100 58 46 27
708 409 805 464 95 54 423 245 437 254 15 11 14 16 -13 59 -16 26 -29 49 -29
52 0 4 -33 60 -77 130 -7 11 -24 42 -38 68 -14 27 -44 77 -65 113 -22 35 -40
68 -40 72 0 4 -6 14 -13 23 -11 14 -34 4 -207 -96z"/>
<path d="M656 1240 c-104 -61 -191 -110 -193 -110 -3 0 -41 -24 -92 -56 -2 -2
47 -90 108 -196 123 -214 115 -199 205 -356 37 -62 66 -117 66 -123 0 -16 15
-9 173 82 265 152 328 191 325 198 -4 9 -206 360 -257 446 -20 34 -56 98 -81
143 -25 45 -49 81 -55 82 -5 0 -95 -50 -199 -110z"/>
</g>
</svg>
